<?xml version="1.0" encoding="utf-8"?>
<!-- Generator: Adobe Illustrator 13.0.0, SVG Export Plug-In . SVG Version: 6.00 Build 14948)  -->
<svg version="1.2" baseProfile="tiny" id="Layer_1" xmlns="http://www.w3.org/2000/svg" xmlns:xlink="http://www.w3.org/1999/xlink"
	 x="0px" y="0px" width="281.88px" height="69.79px" viewBox="0 0 281.88 69.79" xml:space="preserve">
<g>
	<path fill="none" stroke="#FFFFFF" stroke-width="1.5" stroke-linecap="round" stroke-linejoin="round" d="M67.36,48.08
		c-0.01,0.01,0.24,0.38,0.24,0.38c-0.06,0.04-6.07-0.36-6.07-0.36c-0.16,0.1,4.31,6.38,4.19,6.45c0,0-9.48-6.78-10-6.44l7.11,10.94
		c-0.17,0.11-9.82-6.22-9.87-6.18c-0.46,0.3,6.47,9.46,6.24,9.61c-0.55,0.36-9.76-6.05-9.76-6.05s5.61,8.63,5.61,8.63
		c-0.76,0.49-9.35-6.89-9.96-6.49c-0.09,0.06,5.45,8.4,5.45,8.4c-0.6,0.39-10.08-7.38-10.44-7.15c0,0,5.82,8.25,5.49,8.46L34.37,60
		c0,0,6.23,8.8,5.87,9.04c0,0-12.17-10.72-12.55-10.47c0,0,6.39,8.74,6.86,10.32c0.04,0.13-13.46-12.87-13.5-12.84"/>
	<path fill="none" stroke="#FFFFFF" stroke-width="1.5" stroke-linecap="round" stroke-linejoin="round" d="M36.93,24.02
		c-1.05,0.68,7.57,13.67,7.57,13.67c-0.92,0.6-12.63-10.52-12.63-10.52c-0.76,0.49,6.82,10.53,6.82,10.53L28,30.18l4.88,7.51
		c0,0-7.96-6.62-8.59-6.21l2.06,6.53l-8.62-7.07"/>
	<path fill="none" stroke="#FFFFFF" stroke-width="1.5" stroke-linecap="round" stroke-linejoin="round" d="M58.77,21.21
		c-1.42,0.93,9.42,15.01,8.58,16.15c-1.24,0.56-10.89-11.02-11.06-10.91l4.91,11.18c-0.87,0.57-8.31-7.47-8.31-7.47
		c-0.03,0.02,2.59,7.51,2.23,7.75l-7.01-6.17l1.43,5.92c-0.42,0.27-10.14-11.27-12.39-13.74"/>
	<path fill="none" stroke="#FFFFFF" stroke-width="1.5" stroke-linecap="round" stroke-linejoin="round" d="M61.61,11.75
		c0,0,6.28,10.67,5.54,10.27c-1.85-0.99-13-16.15-16.45-17.62c-2.58-1.09,15.91,20.32,18.14,27.15C65.12,30.2,45.31,1.61,43.46,1.47
		c-0.34-0.03,5.92,10.85,5.89,10.87C48.48,12.9,37.75,0.41,37.21,0.76c-0.38,0.24,8.12,11,7.43,11.45
		c-0.34,0.22-13.07-11.5-13.22-11.4c-1.05,0.68,10.11,13.17,9.02,13.88C39.76,15.13,26.11,1.57,26.11,1.57
		C26.05,1.61,36.89,17.65,36.19,18.1C35.37,18.64,21.14,2.95,21.14,2.95c-0.15,0.1,5.97,9.86,5.32,10.29
		c-0.85,0.56-9.65-8.27-9.72-8.22c-0.46,0.3,3.37,8.36,3.37,8.36c-0.26,0.17-7.03-5.95-7.43-5.69c0,0,4.06,7.04,3.65,7.31
		c-0.52,0.34-7.29-3.89-7.29-3.89c-0.51,0.33,5.06,8.62,4.85,8.75c0,0-7.89-4.71-8.01-4.63c0,0,16.04,21.54,14.6,22.48
		C19.51,38.33,4.35,19.66,3.32,20.33l11.29,17.38c-0.89,0.58-12.44-11.12-13.39-10.5c0,0,8.9,9.44,13.14,20.17
		c7.93,9.91,14.95,21.19,14.6,21.27C26.25,69.28,2.52,33.24,0.87,34.31c-1.94,1.26,21.22,32.67,21.22,32.67L1.95,44.84
		c-0.72,0.47,11.43,17.6,11.43,17.6"/>
</g>
<g>
	<path fill="#FFF8D3" d="M110.94,48.86l0.12,2.95c0,0-6.81,0.84-11.51,0.84c-8.98-0.06-11.69-5.48-11.69-15.55
		c0-11.63,5.06-15.79,12.41-15.79c7.77,0,11.87,4.16,11.87,14.28l-0.12,2.89H91.53c0,7.11,2.05,10.91,8.38,10.91
		C104.31,49.4,110.94,48.86,110.94,48.86z M108.53,35.48c0-8.13-2.59-11.03-8.26-11.03c-5.48,0-8.74,3.01-8.74,11.03H108.53z"/>
	<path fill="#FFF8D3" d="M119.55,52.05V21.92h3.56v2.23c0,0,4.58-2.83,9.22-2.83c4.16,0,6.39,0.96,7.89,3.19
		c0,0,5.3-3.19,10.85-3.19c8.19,0,10.06,3.74,10.06,14.88v15.85h-3.56V36.39c0-8.86-0.96-11.81-6.93-11.81
		c-4.94,0-9.16,2.53-9.16,2.53c0.66,1.69,0.9,5.3,0.9,9.28v15.67h-3.62V36.51c0-9.04-0.96-11.93-6.87-11.93
		c-4.7,0-8.8,2.53-8.8,2.53v24.95H119.55z"/>
	<path fill="#FFF8D3" d="M193.85,36.57c0,11.39-2.53,16.09-12.59,16.09c-10.12,0-12.65-4.7-12.65-16.09
		c0-10.67,3.31-15.25,12.65-15.25C190.53,21.32,193.85,25.9,193.85,36.57z M190.17,36.57c0-9.04-2.05-12.05-8.92-12.05
		c-6.93,0-8.92,3.01-8.92,12.05c0,9.22,1.08,12.9,8.92,12.9C189.03,49.46,190.17,45.79,190.17,36.57z"/>
	<path fill="#FFF8D3" d="M201.62,21.92h3.62v29.59c0,7.11-1.99,9.82-9.88,13.86l-1.45-2.89c6.39-3.62,7.71-5.06,7.71-11.03V21.92z
		 M201.62,9.87h3.62v4.52h-3.62V9.87z"/>
	<path fill="#FFF8D3" d="M214.21,9.87h3.55v4.52h-3.55V9.87z M214.21,21.92h3.55v30.13h-3.55V21.92z"/>
	<path fill="#FFF8D3" d="M226.81,52.05V21.92h3.55v2.23c0,0,5.06-2.83,9.82-2.83c8.25,0,10.06,3.86,10.06,14.88v15.85h-3.62V36.39
		c0-8.86-0.96-11.81-6.99-11.81c-4.7,0-9.28,2.53-9.28,2.53v24.95H226.81z"/>
	<path fill="#FFF8D3" d="M280.67,48.86l0.12,2.95c0,0-6.81,0.84-11.51,0.84c-8.98-0.06-11.69-5.48-11.69-15.55
		c0-11.63,5.06-15.79,12.41-15.79c7.77,0,11.87,4.16,11.87,14.28l-0.12,2.89h-20.49c0,7.11,2.05,10.91,8.38,10.91
		C274.05,49.4,280.67,48.86,280.67,48.86z M278.26,35.48c0-8.13-2.59-11.03-8.25-11.03c-5.48,0-8.74,3.01-8.74,11.03H278.26z"/>
</g>
</svg>
