<?xml version="1.0" encoding="utf-8"?>
<!-- Generator: Adobe Illustrator 13.0.0, SVG Export Plug-In . SVG Version: 6.00 Build 14948)  -->
<svg version="1.2" baseProfile="tiny" id="Layer_1" xmlns="http://www.w3.org/2000/svg" xmlns:xlink="http://www.w3.org/1999/xlink"
	 x="0px" y="0px" width="196.07px" height="205.13px" viewBox="0 0 196.07 205.13" xml:space="preserve">
<g>
	<path fill="none" stroke="#FFFFFF" stroke-width="2" stroke-linecap="round" stroke-linejoin="round" d="M157.89,88.53
		c-0.02,0.02,0.45,0.7,0.45,0.7c-0.11,0.07-11.23-0.66-11.23-0.66c-0.29,0.19,7.97,11.8,7.75,11.94c0,0-17.53-12.53-18.49-11.9
		l13.14,20.24c-0.31,0.2-18.15-11.5-18.26-11.43c-0.86,0.56,11.97,17.49,11.54,17.77c-1.01,0.66-18.04-11.18-18.04-11.18
		l10.37,15.96c-1.41,0.91-17.29-12.73-18.43-11.99c-0.17,0.11,10.09,15.53,10.09,15.53c-1.11,0.72-18.64-13.65-19.3-13.22
		c0,0,10.76,15.25,10.16,15.65L96.9,110.61c0,0,11.52,16.27,10.85,16.71c0,0-22.51-19.83-23.21-19.37c0,0,11.82,16.16,12.69,19.09
		c0.07,0.23-24.88-23.8-24.96-23.75"/>
	<path fill="none" stroke="#FFFFFF" stroke-width="2" stroke-linecap="round" stroke-linejoin="round" d="M101.61,44.03
		c-1.95,1.27,14,25.27,14,25.27c-1.7,1.11-23.36-19.46-23.36-19.46c-1.41,0.92,12.62,19.47,12.62,19.47L85.11,55.43l9.02,13.89
		c0,0-14.71-12.24-15.88-11.48l3.82,12.08L66.12,56.84"/>
	<path fill="none" stroke="#FFFFFF" stroke-width="2" stroke-linecap="round" stroke-linejoin="round" d="M142,38.84
		c-2.63,1.71,17.42,27.75,15.88,29.88c-2.29,1.04-20.14-20.38-20.46-20.17l9.09,20.67c-1.62,1.05-15.37-13.82-15.37-13.82
		c-0.05,0.03,4.78,13.89,4.12,14.32l-12.97-11.41l2.64,10.95c-0.77,0.5-18.75-20.83-22.92-25.42"/>
	<path fill="none" stroke="#FFFFFF" stroke-width="2" stroke-linecap="round" stroke-linejoin="round" d="M147.25,21.34
		c0,0,11.62,19.73,10.25,19c-3.42-1.83-24.04-29.88-30.42-32.58c-4.76-2.02,29.42,37.58,33.54,50.21
		c-6.88-2.5-43.5-55.38-46.94-55.64c-0.64-0.05,10.95,20.06,10.89,20.1c-1.6,1.04-21.45-22.06-22.45-21.41
		c-0.7,0.45,15.01,20.35,13.75,21.17C115.24,22.6,91.7,0.93,91.43,1.1c-1.94,1.26,18.7,24.36,16.67,25.67
		c-1.25,0.81-26.5-24.26-26.5-24.26c-0.1,0.07,19.94,29.74,18.65,30.57c-1.52,1-27.84-28.01-27.84-28.01
		c-0.28,0.18,11.04,18.24,9.84,19.03C80.67,25.12,64.4,8.81,64.27,8.89c-0.85,0.55,6.23,15.45,6.23,15.45
		c-0.48,0.31-13-11.01-13.75-10.53c0,0,7.52,13.03,6.75,13.53c-0.96,0.62-13.47-7.19-13.47-7.19c-0.95,0.61,9.36,15.94,8.97,16.19
		c0,0-14.59-8.71-14.81-8.56c0,0,29.66,39.83,26.99,41.56c-1.77,1.15-29.8-33.37-31.71-32.13l20.87,32.14
		c-1.65,1.07-23.01-20.56-24.75-19.43c0,0,16.46,17.46,24.29,37.29c14.67,18.33,27.64,39.19,26.99,39.34
		c-5.01,1.18-48.89-65.48-51.95-63.5c-3.6,2.34,39.24,60.42,39.24,60.42L36.92,82.54c-1.34,0.87,21.14,32.55,21.14,32.55"/>
</g>
<g>
	<path fill="#FFF7D4" d="M23.56,187.78l0.12,3.56c0,0-6.87,0.96-11.75,0.96C2.95,192.3,0,187.06,0,176.81
		c0-11.45,4.94-15.85,12.59-15.85c8.01,0,12.11,4.22,12.11,14.1l-0.24,3.43H4.58c0,6.45,1.99,9.82,7.89,9.82
		C16.99,188.32,23.56,187.78,23.56,187.78z M20.19,174.88c0-7.47-2.29-10.12-7.59-10.12c-5.12,0-8.01,2.83-8.07,10.12H20.19z"/>
	<path fill="#FFF7D4" d="M31.75,191.69v-30.13h4.46v2.11c0,0,4.52-2.71,8.8-2.71c4.04,0,6.27,0.9,7.83,3.07
		c0,0,5.36-3.07,10.73-3.07c8.19,0,10.18,3.92,10.18,14.82v15.91h-4.52V175.9c0-7.95-0.9-10.91-6.33-10.91
		c-4.46,0-8.5,2.23-8.5,2.23c0.54,1.39,0.78,5.18,0.78,8.8v15.67h-4.52v-15.55c0-8.32-0.84-11.15-6.33-11.15
		c-4.28,0-8.07,2.23-8.07,2.23v24.46L31.75,191.69L31.75,191.69z"/>
	<path fill="#FFF7D4" d="M106.59,176.27c0,10.97-2.71,16.03-12.9,16.03c-10.12,0-12.9-5.06-12.9-16.03
		c0-10.36,3.37-15.31,12.9-15.31C103.28,160.96,106.59,165.9,106.59,176.27z M101.95,176.27c0-8.38-1.81-11.39-8.26-11.39
		c-6.39,0-8.25,3.01-8.25,11.39c0,8.56,1.14,12.11,8.25,12.11C100.87,188.38,101.95,184.83,101.95,176.27z"/>
	<path fill="#FFF7D4" d="M114,161.57h4.46v29.41c0,7.41-1.99,10.06-10,14.16l-1.81-3.5c6.09-3.55,7.35-4.94,7.35-10.73V161.57z
		 M114,149.52h4.46v5.24H114V149.52z"/>
	<path fill="#FFF7D4" d="M127.14,149.52h4.52v5.24h-4.52V149.52z M127.14,161.57h4.52v30.13h-4.52V161.57z"/>
	<path fill="#FFF7D4" d="M140.33,191.69v-30.13h4.46v2.11c0,0,4.88-2.71,9.34-2.71c8.32,0,10.18,4.1,10.18,14.82v15.91h-4.46V175.9
		c0-7.95-0.9-10.91-6.51-10.91c-4.34,0-8.5,2.23-8.5,2.23v24.46L140.33,191.69L140.33,191.69z"/>
	<path fill="#FFF7D4" d="M194.93,187.78l0.12,3.56c0,0-6.87,0.96-11.75,0.96c-8.98,0-11.93-5.24-11.93-15.49
		c0-11.45,4.94-15.85,12.59-15.85c8.01,0,12.11,4.22,12.11,14.1l-0.24,3.43h-19.88c0,6.45,1.99,9.82,7.89,9.82
		C188.36,188.32,194.93,187.78,194.93,187.78z M191.55,174.88c0-7.47-2.29-10.12-7.59-10.12c-5.12,0-8.01,2.83-8.07,10.12H191.55z"
		/>
</g>
</svg>
